<svg xmlns="http://www.w3.org/2000/svg">
  <symbol id="search" width="35" height="35" viewBox="0 0 64 64">
    <g><g transform="translate(30.000000, 230.000000)">
    <path fill="currentColor" class="st0" d="M-2.3-182.9c-10.7,0-19.5-8.7-19.5-19.5c0-10.7,8.7-19.5,19.5-19.5s19.5,8.7,19.5,19.5     C17.1-191.6,8.4-182.9-2.3-182.9L-2.3-182.9z M-2.3-219c-9.2,0-16.7,7.5-16.7,16.7c0,9.2,7.5,16.7,16.7,16.7s16.7-7.5,16.7-16.7 C14.3-211.5,6.8-219-2.3-219L-2.3-219z" id="Fill-1"/>
    <polyline fill="currentColor" class="st0" id="Fill-2" points="23.7,-174.2 10.1,-187.7 12.3,-189.9 25.8,-176.3 23.7,-174.2    "/></g></g>
  </symbol>

  <symbol id="cart" width="29" height="25" viewBox="0 0 29 25" fill="none">
    <path fill="currentColor" d="M28.5464 3.96838C28.1574 3.48705 27.5792 3.21104 26.9603 3.21104H4.85617L4.65878 1.79639C4.51899 0.794653 3.65081 0.0391846 2.63927 0.0391846H0.906245C0.405771 0.0391846 0 0.444955 0 0.945429C0 1.4459 0.405771 1.85167 0.906245 1.85167H2.63927C2.75164 1.85167 2.84816 1.93561 2.86362 2.04691L5.30986 19.5787C5.44965 20.5805 6.31783 21.3359 7.32937 21.3359H8.31202C8.21143 21.6196 8.15615 21.9245 8.15615 22.2422C8.15615 23.7413 9.37578 24.9609 10.8749 24.9609C12.374 24.9609 13.5936 23.7413 13.5936 22.2422C13.5936 21.9245 13.5383 21.6196 13.4377 21.3359H18.2807C18.1801 21.6196 18.1248 21.9245 18.1248 22.2422C18.1248 23.7413 19.3445 24.9609 20.8436 24.9609C22.3427 24.9609 23.5623 23.7413 23.5623 22.2422C23.5623 21.9245 23.507 21.6196 23.4064 21.3359H25.3749C25.8753 21.3359 26.2811 20.9302 26.2811 20.4297C26.2811 19.9292 25.8753 19.5234 25.3749 19.5234H7.32942C7.21705 19.5234 7.12053 19.4395 7.10507 19.3282L6.87942 17.711H24.7269C25.6817 17.711 26.5203 17.0333 26.7209 16.0991L28.9542 5.67744C29.0839 5.07247 28.9353 4.44954 28.5464 3.96838ZM11.7812 22.2422C11.7812 22.7419 11.3746 23.1484 10.8749 23.1484C10.3753 23.1484 9.96869 22.7419 9.96869 22.2422C9.96869 21.7425 10.3753 21.3359 10.8749 21.3359C11.3746 21.3359 11.7812 21.7424 11.7812 22.2422ZM21.7499 22.2422C21.7499 22.7419 21.3433 23.1484 20.8436 23.1484C20.3439 23.1484 19.9374 22.7419 19.9374 22.2422C19.9374 21.7425 20.3439 21.3359 20.8436 21.3359C21.3433 21.3359 21.7499 21.7424 21.7499 22.2422ZM27.182 5.2975L24.9487 15.7189C24.9264 15.8229 24.8331 15.8984 24.7269 15.8984H6.62646L5.10907 5.02347H26.9602C27.0499 5.02347 27.1057 5.06924 27.1368 5.10764C27.1677 5.14599 27.2007 5.21005 27.182 5.2975Z"/>
  </symbol>

  <symbol id="menu" viewBox="0 0 25 11"><path fill="#000000" d="M1.5 3h22c.8 0 1.5-.7 1.5-1.5S24.3 0 23.5 0h-22C.7 0 0 .7 0 1.5S.7 3 1.5 3zM23.5 8h-22C.7 8 0 8.7 0 9.5S.7 11 1.5 11h22c.8 0 1.5-.7 1.5-1.5S24.3 8 23.5 8z"/></symbol>

  <symbol id="arrow" width="155" height="16" viewBox="0 0 155 16" fill="none">
    <path d="M154.707 8.70711C155.098 8.31658 155.098 7.68342 154.707 7.29289L148.343 0.928932C147.953 0.538408 147.319 0.538408 146.929 0.928932C146.538 1.31946 146.538 1.95262 146.929 2.34315L152.586 8L146.929 13.6569C146.538 14.0474 146.538 14.6805 146.929 15.0711C147.319 15.4616 147.953 15.4616 148.343 15.0711L154.707 8.70711ZM0 9H154V7H0V9Z" fill="currentColor"/>
    </symbol>
</svg>
