<svg width="16" height="16" viewBox="0 0 16 16" fill="none" xmlns="http://www.w3.org/2000/svg">
<path d="M11.4354 3.56721C11.6355 3.76936 11.824 3.98124 11.9969 4.20672C11.9464 4.14063 11.8959 4.07649 11.8454 4.0104C12.1854 4.45553 12.4691 4.94148 12.6868 5.45659C12.6537 5.37884 12.6207 5.30109 12.5896 5.22528C12.8111 5.75594 12.9627 6.31187 13.0404 6.8814C13.0287 6.79588 13.0171 6.7084 13.0054 6.62288C13.0832 7.20602 13.0832 7.79694 13.0054 8.38008C13.0171 8.29455 13.0287 8.20708 13.0404 8.12155C12.9627 8.69109 12.8111 9.24702 12.5896 9.77768C12.6226 9.69993 12.6557 9.62217 12.6868 9.54637C12.4691 10.0634 12.1854 10.5494 11.8454 10.9926C11.8959 10.9265 11.9464 10.8623 11.9969 10.7962C11.6491 11.2453 11.2449 11.6496 10.7961 11.9975C10.8621 11.947 10.9263 11.8964 10.9923 11.8459C10.5474 12.1861 10.0616 12.4699 9.54665 12.6876C9.62437 12.6545 9.7021 12.6215 9.77788 12.5904C9.2474 12.812 8.69167 12.9636 8.12233 13.0413C8.20783 13.0297 8.29527 13.018 8.38076 13.0063C7.79782 13.0841 7.20711 13.0841 6.62417 13.0063C6.70967 13.018 6.79711 13.0297 6.88261 13.0413C6.31327 12.9636 5.75753 12.812 5.22706 12.5904C5.30478 12.6234 5.38251 12.6565 5.45829 12.6876C4.94142 12.4699 4.45563 12.1861 4.0126 11.8459C4.07866 11.8964 4.14279 11.947 4.20885 11.9975C3.75999 11.6496 3.35582 11.2453 3.008 10.7962C3.05852 10.8623 3.10904 10.9265 3.15956 10.9926C2.81951 10.5474 2.53581 10.0615 2.31818 9.54637C2.35122 9.62412 2.38425 9.70187 2.41534 9.77768C2.19382 9.24702 2.04226 8.69109 1.96453 8.12155C1.97619 8.20708 1.98785 8.29455 1.99951 8.38008C1.92178 7.79694 1.92178 7.20602 1.99951 6.62288C1.98785 6.7084 1.97619 6.79588 1.96453 6.8814C2.04226 6.31187 2.19382 5.75594 2.41534 5.22528C2.38231 5.30303 2.34927 5.38078 2.31818 5.45659C2.53581 4.93954 2.81951 4.45358 3.15956 4.0104C3.10904 4.07649 3.05852 4.14063 3.008 4.20672C3.35582 3.7577 3.75999 3.35339 4.20885 3.00545C4.14279 3.05599 4.07866 3.10653 4.0126 3.15706C4.45757 2.8169 4.94336 2.5331 5.45829 2.31539C5.38056 2.34844 5.30284 2.38148 5.22706 2.41259C5.75753 2.19099 6.31327 2.03937 6.88261 1.96162C6.79711 1.97328 6.70967 1.98495 6.62417 1.99661C7.20711 1.91886 7.79782 1.91886 8.38076 1.99661C8.29527 1.98495 8.20783 1.97328 8.12233 1.96162C8.69167 2.03937 9.2474 2.19099 9.77788 2.41259C9.70015 2.37954 9.62243 2.3465 9.54665 2.31539C10.0635 2.5331 10.5493 2.8169 10.9923 3.15706C10.9263 3.10653 10.8621 3.05599 10.7961 3.00545C11.0195 3.18039 11.2333 3.367 11.4354 3.56721C11.6122 3.74409 11.8726 3.851 12.1232 3.851C12.3622 3.851 12.6459 3.74604 12.8111 3.56721C12.9802 3.38255 13.1065 3.13957 13.0948 2.8791C13.0832 2.62252 12.9957 2.3776 12.8111 2.19099C11.7385 1.12773 10.3317 0.367698 8.8374 0.118891C8.10095 -0.00356947 7.3645 -0.0424456 6.62417 0.0547448C6.21806 0.109171 5.81777 0.173317 5.42331 0.288002C5.02691 0.402687 4.64217 0.558191 4.26715 0.73119C3.57539 1.05192 2.93999 1.499 2.38231 2.01605C1.81685 2.53893 1.32524 3.16678 0.950216 3.84128C0.592679 4.48663 0.318697 5.19418 0.169075 5.91727C0.019454 6.6462 -0.0427263 7.4004 0.0311129 8.14293C0.108838 8.93212 0.285664 9.68049 0.592679 10.4114C0.905524 11.1539 1.3233 11.8206 1.84794 12.4329C2.34927 13.018 2.95942 13.5253 3.6162 13.9258C4.2516 14.3126 4.96085 14.608 5.68175 14.7869C7.11773 15.1387 8.68001 15.0784 10.0674 14.5556C10.456 14.4098 10.8369 14.2407 11.1983 14.0385C11.5656 13.8305 11.9037 13.5837 12.234 13.3232C12.8422 12.8411 13.361 12.2483 13.7885 11.6029C14.6105 10.3647 15.036 8.84271 15.003 7.35764C14.9699 5.86285 14.4939 4.35251 13.6039 3.14346C13.3591 2.80912 13.0987 2.48839 12.8053 2.19488C12.6304 2.01799 12.3661 1.91108 12.1174 1.91108C11.8784 1.91108 11.5947 2.01605 11.4295 2.19488C11.2605 2.37954 11.1342 2.62252 11.1458 2.88299C11.1614 3.13957 11.2488 3.3806 11.4354 3.56721Z" fill="white"/>
</svg>
